<?xml version="1.0" encoding="utf-8"?>
<!-- Generator: Adobe Illustrator 22.0.1, SVG Export Plug-In . SVG Version: 6.00 Build 0)  -->
<svg version="1.1" id="Trust_Logo_-_Stacked" xmlns="http://www.w3.org/2000/svg" xmlns:xlink="http://www.w3.org/1999/xlink"
	 x="0px" y="0px" viewBox="0 0 600 600" style="enable-background:new 0 0 600 600;" xml:space="preserve">
<style type="text/css">
	.st0{fill:#121212;}
	.st1{fill:#FFFFFF;}
	.st2{clip-path:url(#SVGID_2_);}
	.st3{clip-path:url(#SVGID_4_);fill:#121212;}
</style>
<g>
	<g>
		<g>
			<path class="st0" d="M342.8,212.2h-13.9v37.6h-9.8v-37.6h-13.7v-7.9h23.5h13.9V212.2z"/>
			<path class="st0" d="M375.2,218.5c2,2.1,3,5.5,3,10.1v21.2h-9.4v-21.3c0-2-0.4-3.5-1.3-4.3c-0.9-0.8-2.2-1.3-4-1.3
				c-2.5,0-4.3,0.9-5.4,2.8v24.1h-9.4v-45.5h9.4v15.3c1.1-1.4,2.4-2.4,4-3.2c1.5-0.7,3.2-1.1,5-1.1
				C370.5,215.4,373.2,216.4,375.2,218.5z"/>
			<path class="st0" d="M414.1,236h-21.4c0.4,2.1,1.2,3.8,2.6,5c1.4,1.2,3.2,1.9,5.4,1.9c1.6,0,3.1-0.3,4.5-0.9
				c1.4-0.6,2.6-1.5,3.6-2.8l4.5,5.2c-1.2,1.7-2.9,3.1-5.2,4.3c-2.3,1.2-5,1.7-8,1.7c-3.5,0-6.5-0.7-9-2.2c-2.6-1.5-4.5-3.4-5.9-5.9
				c-1.4-2.5-2-5.3-2-8.3v-1.2c0-3.4,0.6-6.4,1.9-9c1.3-2.6,3.1-4.7,5.5-6.2c2.4-1.5,5.2-2.2,8.5-2.2c3.2,0,5.9,0.7,8.2,2
				c2.3,1.4,4,3.3,5.1,5.8c1.2,2.5,1.8,5.4,1.8,8.8V236z M404.9,228.9c0-1.8-0.5-3.3-1.5-4.3c-1-1.1-2.4-1.6-4.3-1.6
				c-1.8,0-3.2,0.6-4.2,1.8c-1,1.2-1.7,2.8-2,4.9h12V228.9z"/>
		</g>
		<g>
			<path class="st0" d="M342.8,279.4h-13.9V317h-9.8v-37.6h-13.7v-7.9h23.5h13.9V279.4z"/>
			<path class="st0" d="M366.1,282.6c0.5,0.1,1,0.2,1.3,0.3l-0.1,9.1c-1.2-0.2-2.3-0.2-3.3-0.2c-3.4,0-5.6,1.1-6.6,3.3V317h-9.4
				v-33.8h8.9l0.3,4.1c0.8-1.5,1.9-2.7,3.2-3.5c1.3-0.8,2.7-1.2,4.3-1.2C365.1,282.5,365.6,282.6,366.1,282.6z"/>
			<path class="st0" d="M402.9,283.2V317H394l-0.3-3.5c-1.1,1.3-2.4,2.4-3.9,3.1c-1.5,0.7-3.3,1.1-5.3,1.1c-3.5,0-6.3-1-8.3-3.1
				c-2-2-3-5.2-3-9.5v-21.9h9.4v22c0,1.7,0.4,2.9,1.2,3.7c0.8,0.8,2,1.2,3.4,1.2c2.9,0,4.9-1,6-3v-23.8H402.9z"/>
			<path class="st0" d="M409.2,293.1c0-1.9,0.5-3.7,1.6-5.3c1.1-1.6,2.7-2.9,4.7-3.8c2.1-1,4.5-1.4,7.2-1.4c2.9,0,5.4,0.5,7.6,1.4
				c2.2,0.9,3.8,2.2,5,3.9c1.2,1.7,1.8,3.6,1.8,5.7h-9.4c0-1.4-0.4-2.4-1.2-3.2c-0.8-0.8-2.1-1.1-3.7-1.1c-1.4,0-2.5,0.3-3.3,1
				c-0.8,0.6-1.2,1.5-1.2,2.5c0,1,0.5,1.8,1.4,2.4c0.9,0.6,2.5,1.1,4.7,1.5c2.7,0.5,4.9,1.2,6.8,2c1.9,0.8,3.3,1.9,4.4,3.3
				c1.1,1.4,1.6,3.2,1.6,5.4c0,2-0.6,3.8-1.8,5.3c-1.2,1.6-2.9,2.8-5,3.7c-2.2,0.9-4.7,1.3-7.6,1.3c-3,0-5.7-0.6-7.9-1.7
				c-2.2-1.1-3.9-2.5-5.1-4.3c-1.2-1.8-1.7-3.6-1.7-5.5h8.9c0.1,1.6,0.6,2.8,1.8,3.6c1.1,0.8,2.5,1.2,4.3,1.2c1.6,0,2.8-0.3,3.7-0.9
				c0.9-0.6,1.3-1.4,1.3-2.5c0-0.6-0.2-1.2-0.6-1.6c-0.4-0.4-1.1-0.9-2.1-1.3c-1-0.4-2.4-0.8-4.2-1.2
				C413.2,301.7,409.2,298.3,409.2,293.1z"/>
			<path class="st0" d="M461.2,309.6v7.1c-1.6,0.6-3.5,0.9-5.6,0.9c-6.6,0-9.9-3.4-9.9-10.1V290h-4.8v-6.9h4.8v-8.4h9.4v8.4h5.7v6.9
				h-5.7v16.4c0,1.3,0.3,2.2,0.8,2.7c0.5,0.5,1.4,0.7,2.7,0.7C459.6,309.9,460.5,309.8,461.2,309.6z"/>
		</g>
		<g>
			<path class="st0" d="M335.2,340.7c2.6,1.3,4.6,3.1,6,5.4c1.4,2.3,2.1,4.9,2.1,7.9c0,2.9-0.7,5.5-2.1,7.7c-1.4,2.2-3.4,3.9-6,5.1
				c-2.6,1.2-5.7,1.8-9.2,1.8h-8.1v15.8h-9.8v-45.5H326C329.5,338.8,332.6,339.4,335.2,340.7z M331.5,358.8c1.2-1.2,1.8-2.8,1.8-4.8
				c0-1.3-0.3-2.6-0.8-3.7c-0.5-1.1-1.3-2-2.4-2.7c-1.1-0.7-2.5-1-4.1-1h-8.1v13.8h8.1C328.5,360.5,330.3,360,331.5,358.8z"/>
			<path class="st0" d="M366.6,350c0.5,0.1,1,0.2,1.3,0.3l-0.1,9.1c-1.2-0.2-2.3-0.3-3.3-0.3c-3.4,0-5.6,1.1-6.6,3.3v21.9h-9.4
				v-33.8h8.9l0.3,4.1c0.8-1.5,1.9-2.7,3.2-3.5c1.3-0.8,2.7-1.2,4.3-1.2C365.6,349.8,366.1,349.9,366.6,350z"/>
			<path class="st0" d="M373.2,358.2c1.3-2.6,3.1-4.6,5.5-6.1c2.4-1.5,5.3-2.2,8.7-2.2c3.4,0,6.3,0.7,8.7,2.2
				c2.4,1.5,4.3,3.5,5.5,6.1c1.3,2.6,1.9,5.6,1.9,8.9v0.7c0,3.3-0.6,6.3-1.9,8.9c-1.3,2.6-3.1,4.6-5.5,6.1c-2.4,1.5-5.3,2.2-8.7,2.2
				c-3.4,0-6.3-0.7-8.7-2.2c-2.4-1.5-4.3-3.5-5.5-6.1c-1.3-2.6-1.9-5.6-1.9-8.9v-0.7C371.3,363.8,371.9,360.8,373.2,358.2z
				 M382.3,374.7c1.1,1.7,2.8,2.6,5.1,2.6c2.3,0,4-0.9,5-2.6c1.1-1.8,1.6-4.1,1.6-7v-0.7c0-2.9-0.5-5.2-1.6-7
				c-1.1-1.8-2.8-2.7-5.1-2.7c-2.3,0-4,0.9-5,2.7c-1.1,1.8-1.6,4.1-1.6,7v0.7C380.7,370.7,381.3,373,382.3,374.7z"/>
			<path class="st0" d="M419.4,383.6c0,3.9-1,6.9-3.1,8.9c-2.1,2.1-5,3.1-8.8,3.1c-1.7,0-3.2-0.2-4.6-0.5v-7.5c1,0.2,2,0.3,2.9,0.3
				c2.8,0,4.2-1.5,4.2-4.3v-33.2h9.5V383.6z M418.3,338.7c1,0.9,1.5,2.1,1.5,3.5c0,1.4-0.5,2.6-1.5,3.5c-1,0.9-2.2,1.4-3.8,1.4
				c-1.6,0-2.9-0.5-3.8-1.4c-1-0.9-1.5-2.1-1.5-3.5c0-1.4,0.5-2.6,1.5-3.5c1-0.9,2.2-1.4,3.8-1.4
				C416.1,337.4,417.3,337.8,418.3,338.7z"/>
			<path class="st0" d="M456.5,370.5h-21.4c0.4,2.1,1.2,3.8,2.6,5c1.4,1.2,3.2,1.9,5.4,1.9c1.6,0,3.1-0.3,4.5-0.9
				c1.4-0.6,2.6-1.5,3.6-2.8l4.5,5.2c-1.2,1.7-2.9,3.2-5.2,4.3c-2.3,1.2-5,1.8-8,1.8c-3.5,0-6.5-0.7-9-2.2c-2.6-1.5-4.5-3.4-5.9-5.9
				c-1.4-2.5-2-5.3-2-8.3v-1.2c0-3.4,0.6-6.4,1.9-9c1.3-2.6,3.1-4.7,5.5-6.2c2.4-1.5,5.2-2.2,8.5-2.2c3.2,0,5.9,0.7,8.2,2
				c2.3,1.4,4,3.3,5.1,5.8c1.2,2.5,1.8,5.4,1.8,8.8V370.5z M447.3,363.4c0-1.8-0.5-3.3-1.5-4.3c-1-1.1-2.4-1.6-4.3-1.6
				c-1.8,0-3.2,0.6-4.2,1.8c-1,1.2-1.7,2.8-2,4.9h12V363.4z"/>
			<path class="st0" d="M491,372.5c0,2.4-0.6,4.5-1.9,6.4c-1.3,1.9-2.9,3.4-5.1,4.4c-2.1,1.1-4.5,1.6-7.1,1.6
				c-3.4,0-6.3-0.7-8.6-2.2c-2.4-1.5-4.1-3.5-5.3-6.1c-1.2-2.6-1.8-5.5-1.8-8.8V367c0-3.3,0.6-6.2,1.8-8.8c1.2-2.6,2.9-4.6,5.3-6.1
				c2.3-1.5,5.2-2.2,8.6-2.2c2.8,0,5.2,0.5,7.4,1.6c2.1,1.1,3.8,2.6,5,4.6c1.2,2,1.8,4.4,1.8,7.1h-8.9c0-1.7-0.5-3-1.5-4.1
				c-1-1.1-2.3-1.6-4-1.6c-2.3,0-3.9,0.9-4.7,2.6c-0.9,1.7-1.3,4-1.3,7v0.8c0,3,0.4,5.3,1.3,7c0.8,1.7,2.4,2.5,4.8,2.5
				c1.6,0,2.9-0.4,3.9-1.3c1-0.9,1.5-2.1,1.5-3.6H491z"/>
			<path class="st0" d="M515.2,377v7.1c-1.6,0.6-3.5,0.9-5.6,0.9c-6.6,0-9.9-3.4-9.9-10.1v-17.4h-4.8v-6.9h4.8v-8.4h9.4v8.4h5.7v6.9
				h-5.7v16.4c0,1.3,0.3,2.2,0.8,2.7c0.5,0.5,1.4,0.7,2.7,0.7C513.6,377.2,514.4,377.1,515.2,377z"/>
		</g>
	</g>
	<g>
		<path class="st1" d="M254,355.5c0,9.9-8.1,18-18,18H113.6c-9.9,0-18-8.1-18-18V233.1c0-9.9,8.1-18,18-18H236c9.9,0,18,8.1,18,18
			V355.5z"/>
		<path class="st0" d="M236,204.3H113.6c-15.9,0-28.8,12.9-28.8,28.8v122.4c0,15.9,12.9,28.8,28.8,28.8H236
			c15.9,0,28.8-12.9,28.8-28.8V233.1C264.8,217.2,251.9,204.3,236,204.3z M254,355.5c0,9.9-8.1,18-18,18H113.6c-9.9,0-18-8.1-18-18
			V233.1c0-9.9,8.1-18,18-18H236c9.9,0,18,8.1,18,18V355.5z"/>
		<g>
			<defs>
				<path id="SVGID_1_" d="M192.6,342.6h-35.5c-0.7,0-1.3-0.6-1.3-1.3v-60.4c0-0.9-0.7-1.6-1.6-1.6h-31.5c-0.7,0-1.3-0.6-1.3-1.3
					v-31.3c0-0.7,0.6-1.3,1.3-1.3H227c0.7,0,1.3,0.6,1.3,1.3V278c0,0.7-0.6,1.3-1.3,1.3h-31.8c-0.7,0-1.3,0.6-1.3,1.3v60.7
					C193.9,342,193.4,342.6,192.6,342.6z"/>
			</defs>
			<use xlink:href="#SVGID_1_"  style="overflow:visible;fill-rule:evenodd;clip-rule:evenodd;fill:#121212;"/>
			<clipPath id="SVGID_2_">
				<use xlink:href="#SVGID_1_"  style="overflow:visible;"/>
			</clipPath>
			<g class="st2">
				<defs>
					<rect id="SVGID_3_" x="-684.1" y="-379.3" width="1593.1" height="1296.3"/>
				</defs>
				<use xlink:href="#SVGID_3_"  style="overflow:visible;fill:#121212;"/>
				<clipPath id="SVGID_4_">
					<use xlink:href="#SVGID_3_"  style="overflow:visible;"/>
				</clipPath>
				<rect x="119.7" y="243.8" class="st3" width="110.2" height="100.4"/>
			</g>
		</g>
	</g>
</g>
</svg>
