<svg enable-background="new 0 0 1000 1000" viewBox="0 0 1000 1000" xmlns="http://www.w3.org/2000/svg"><path d="m940 840c0 55.2-44.8 100-100 100h-680c-55.2 0-100-44.8-100-100v-680c0-55.2 44.8-100 100-100h680c55.2 0 100 44.8 100 100z" fill="#fff"/><g fill="#121212"><path d="m840 0h-680c-88.2 0-160 71.8-160 160v680c0 88.2 71.8 160 160 160h680c88.2 0 160-71.8 160-160v-680c0-88.2-71.8-160-160-160zm100 840c0 55.2-44.8 100-100 100h-680c-55.2 0-100-44.8-100-100v-680c0-55.2 44.8-100 100-100h680c55.2 0 100 44.8 100 100z"/><path d="m598.9 770h-197.3c-4 0-7.2-3.2-7.2-7.2v-335.7c0-5-4-9-9-9h-175.2c-4 0-7.2-3.2-7.2-7.2v-173.7c0-4 3.2-7.2 7.2-7.2h579.6c4 0 7.2 3.2 7.2 7.2v173.7c0 4-3.2 7.2-7.2 7.2h-176.5c-4 0-7.2 3.2-7.2 7.2v337.5c0 4-3.2 7.2-7.2 7.2z"/></g></svg>